# xmcd
#
# Track frame offsets: 
#        150
#        16711
#        40034
#        57350
#        85239
#        101246
#        117475
#        141384
#        155661
#        175550
#        201936
#
# Disc length: 2905 seconds
#
# Revision: 0
# Processed by: cddbd v1.5.2PL0 Copyright (c) Steve Scherf et al.
# Submitted via: ExactAudioCopy v0.95b4
#
DISCID=920b570b
DTITLE=Ben Mitchell - Peace Of Mond
DYEAR=2002
DGENRE=Country
TTITLE0=Carmelita
TTITLE1=Peace Of Mind
TTITLE2=Front Porch Swing
TTITLE3=You Don't Love Me Anymore
TTITLE4=Rodeo Clown
TTITLE5=Australia
TTITLE6=Down In Tennessee
TTITLE7=She Believes That For Me
TTITLE8=A Long Sad Story
TTITLE9=Directions
TTITLE10=A Song For You
EXTD=
EXTT0=
EXTT1=
EXTT2=
EXTT3=
EXTT4=
EXTT5=
EXTT6=
EXTT7=
EXTT8=
EXTT9=
EXTT10=
PLAYORDER=
